<svg width="18" height="18" viewBox="0 0 18 18" fill="none" xmlns="http://www.w3.org/2000/svg">
<path fill-rule="evenodd" clip-rule="evenodd" d="M17.4634 8.98806C17.4634 9.56515 17.4047 10.1414 17.2893 10.7032C17.1768 11.2516 17.0101 11.79 16.7918 12.3047C16.5784 12.8103 16.3138 13.2975 16.0047 13.7518C15.7001 14.2033 15.3492 14.6269 14.9638 15.013C14.5775 15.3975 14.1525 15.7474 13.7012 16.0532C13.2454 16.3603 12.7574 16.6245 12.2516 16.8388C11.7361 17.056 11.1965 17.2224 10.6485 17.3348C10.0861 17.4505 9.50766 17.5095 8.92973 17.5095C8.35137 17.5095 7.77301 17.4505 7.21132 17.3348C6.66255 17.2224 6.12293 17.056 5.6079 16.8388C5.10205 16.6245 4.61367 16.3603 4.15783 16.0532C3.70655 15.7474 3.28154 15.3975 2.8961 15.013C2.51025 14.6269 2.15938 14.2033 1.85437 13.7518C1.54686 13.2975 1.28182 12.8102 1.06766 12.3047C0.84929 11.79 0.682221 11.2516 0.569295 10.7032C0.455132 10.1414 0.396782 9.56515 0.396782 8.98806C0.396782 8.41053 0.455099 7.833 0.569328 7.27249C0.682255 6.72408 0.849323 6.18484 1.06769 5.67099C1.28186 5.16503 1.54689 4.67739 1.85441 4.223C2.15942 3.77115 2.51029 3.34838 2.89613 2.96183C3.28157 2.57734 3.70659 2.22828 4.15786 1.92287C4.61371 1.61453 5.10209 1.35035 5.60793 1.13563C6.12297 0.917974 6.66255 0.751146 7.21135 0.63965C7.77304 0.524819 8.3514 0.466553 8.92976 0.466553C9.50769 0.466553 10.0861 0.524819 10.6486 0.63965C11.1965 0.75118 11.7361 0.918007 12.2516 1.13563C12.7574 1.35032 13.2454 1.61453 13.7012 1.92287C14.1525 2.22828 14.5776 2.57734 14.9638 2.96183C15.3492 3.34838 15.7001 3.77115 16.0047 4.223C16.3138 4.67739 16.5784 5.16507 16.7918 5.67099C17.0101 6.18484 17.1768 6.72408 17.2893 7.27249C17.4047 7.833 17.4634 8.41053 17.4634 8.98806ZM5.82037 2.40593C3.78816 3.36421 2.27142 5.23409 1.79847 7.48763C1.99059 7.4893 5.02741 7.52759 8.52633 6.59926C7.26503 4.36153 5.91746 2.53537 5.82037 2.40593ZM9.1301 7.71983C5.37784 8.84157 1.77722 8.76085 1.64806 8.75588C1.64596 8.83409 1.64222 8.9098 1.64222 8.98805C1.64222 10.8575 2.3485 12.5618 3.50939 13.8505C3.50689 13.8467 5.50119 10.3137 9.43388 9.04381C9.52887 9.01219 9.62556 8.98388 9.72139 8.95643C9.53849 8.54286 9.33885 8.12843 9.1301 7.71983ZM13.7425 3.52647C12.4595 2.39677 10.7748 1.71152 8.92971 1.71152C8.33759 1.71152 7.76297 1.78309 7.21253 1.9154C7.32168 2.06188 8.69053 3.87517 9.93683 6.16029C12.6866 5.13091 13.7245 3.55309 13.7425 3.52647ZM10.2181 10.1622C10.2019 10.1676 10.1857 10.1723 10.1698 10.1781C5.87007 11.6748 4.46594 14.6913 4.45075 14.7242C5.68792 15.685 7.23967 16.2646 8.92976 16.2646C9.93895 16.2646 10.9002 16.0594 11.7749 15.6879C11.6669 15.0521 11.2436 12.8235 10.2181 10.1622ZM13.002 15.023C14.6383 13.9204 15.8005 12.1695 16.1246 10.1414C15.9746 10.0931 13.9358 9.44861 11.5836 9.82519C12.5394 12.4482 12.9278 14.5844 13.002 15.023ZM10.4978 7.24463C10.6669 7.59166 10.8307 7.94486 10.9819 8.29983C11.0357 8.42716 11.0882 8.552 11.1394 8.6768C13.6429 8.36223 16.1093 8.89149 16.2147 8.9131C16.1981 7.18803 15.5801 5.60481 14.5576 4.36531C14.5438 4.38482 13.375 6.07124 10.4978 7.24463Z" fill="white"/>
</svg>
