<svg width="18" height="18" viewBox="0 0 18 18" fill="none" xmlns="http://www.w3.org/2000/svg">
<path fill-rule="evenodd" clip-rule="evenodd" d="M8.93091 0.466553C6.61338 0.466553 6.32253 0.476686 5.4123 0.518109C4.50385 0.559709 3.88375 0.703533 3.34117 0.914557C2.77992 1.13252 2.30382 1.42407 1.82951 1.89857C1.35484 2.37288 1.06328 2.84898 0.844609 3.41005C0.633051 3.95281 0.48905 4.57308 0.44816 5.48118C0.407449 6.39141 0.396782 6.68244 0.396782 8.99997C0.396782 11.3175 0.407093 11.6075 0.448338 12.5177C0.490116 13.4262 0.63394 14.0462 0.844787 14.5888C1.06292 15.1501 1.35448 15.6262 1.82897 16.1005C2.30311 16.5752 2.77921 16.8674 3.3401 17.0854C3.88304 17.2964 4.50331 17.4402 5.41159 17.4818C6.32182 17.5233 6.61249 17.5334 8.92985 17.5334C11.2476 17.5334 11.5375 17.5233 12.4478 17.4818C13.3562 17.4402 13.977 17.2964 14.52 17.0854C15.081 16.8674 15.5564 16.5752 16.0305 16.1005C16.5052 15.6262 16.7968 15.1501 17.0154 14.589C17.2252 14.0462 17.3692 13.426 17.4119 12.5179C17.4528 11.6076 17.4634 11.3175 17.4634 8.99997C17.4634 6.68244 17.4528 6.39159 17.4119 5.48136C17.3692 4.57291 17.2252 3.95281 17.0154 3.41023C16.7968 2.84898 16.5052 2.37288 16.0305 1.89857C15.5559 1.4239 15.0812 1.13234 14.5194 0.914557C13.9754 0.703533 13.355 0.559709 12.4465 0.518109C11.5363 0.476686 11.2465 0.466553 8.92825 0.466553H8.93091ZM8.16536 2.00432C8.39256 2.00397 8.64608 2.00432 8.93088 2.00432C11.2093 2.00432 11.4793 2.0125 12.3791 2.05339C13.2111 2.09143 13.6627 2.23046 13.9635 2.34726C14.3617 2.50193 14.6456 2.68682 14.9441 2.98549C15.2428 3.28416 15.4277 3.56861 15.5827 3.96683C15.6995 4.26728 15.8387 4.71884 15.8765 5.55085C15.9174 6.45041 15.9263 6.72064 15.9263 8.998C15.9263 11.2754 15.9174 11.5456 15.8765 12.4451C15.8385 13.2772 15.6995 13.7287 15.5827 14.0292C15.428 14.4274 15.2428 14.7109 14.9441 15.0094C14.6454 15.3081 14.3619 15.493 13.9635 15.6477C13.663 15.765 13.2111 15.9037 12.3791 15.9417C11.4795 15.9826 11.2093 15.9915 8.93088 15.9915C6.65228 15.9915 6.38223 15.9826 5.48267 15.9417C4.65066 15.9033 4.1991 15.7643 3.89812 15.6475C3.49989 15.4928 3.21544 15.3079 2.91677 15.0093C2.6181 14.7106 2.43321 14.4269 2.27819 14.0284C2.16139 13.728 2.02218 13.2764 1.98432 12.4444C1.94343 11.5449 1.93525 11.2746 1.93525 8.99586C1.93525 6.71708 1.94343 6.44828 1.98432 5.54872C2.02236 4.71671 2.16139 4.26515 2.27819 3.96434C2.43286 3.56612 2.6181 3.28167 2.91677 2.983C3.21544 2.68433 3.49989 2.49944 3.89812 2.34441C4.19892 2.22708 4.65066 2.08841 5.48267 2.05019C6.26987 2.01463 6.57494 2.00397 8.16536 2.00219V2.00432ZM13.486 3.42123C12.9206 3.42123 12.4619 3.87937 12.4619 4.44488C12.4619 5.01022 12.9206 5.4689 13.486 5.4689C14.0513 5.4689 14.51 5.01022 14.51 4.44488C14.51 3.87955 14.0513 3.42123 13.486 3.42123ZM8.93093 4.61768C6.51082 4.61768 4.54866 6.57984 4.54866 8.99995C4.54866 11.4201 6.51082 13.3813 8.93093 13.3813C11.351 13.3813 13.3125 11.4201 13.3125 8.99995C13.3125 6.57984 11.351 4.61768 8.93093 4.61768ZM8.9309 6.15548C10.5018 6.15548 11.7754 7.42891 11.7754 8.99995C11.7754 10.5708 10.5018 11.8444 8.9309 11.8444C7.35986 11.8444 6.08642 10.5708 6.08642 8.99995C6.08642 7.42891 7.35986 6.15548 8.9309 6.15548Z" fill="white"/>
</svg>
