<svg width="17" height="14" viewBox="0 0 17 14" fill="none" xmlns="http://www.w3.org/2000/svg">
<path fill-rule="evenodd" clip-rule="evenodd" d="M8.45092 4.0051L8.48449 4.55873L7.92491 4.49094C5.88802 4.23107 4.10855 3.34977 2.59767 1.86964L1.85902 1.13523L1.66876 1.67757C1.26586 2.88653 1.52327 4.16328 2.36265 5.02198C2.81032 5.49653 2.70959 5.56432 1.93736 5.28185C1.66876 5.19146 1.43374 5.12367 1.41136 5.15757C1.33301 5.23666 1.60161 6.26484 1.81426 6.67159C2.10524 7.23653 2.6984 7.79016 3.34752 8.11782L3.89591 8.37769L3.24679 8.38899C2.62006 8.38899 2.59767 8.40029 2.66482 8.63756C2.88866 9.37198 3.7728 10.1516 4.75767 10.4906L5.45155 10.7278L4.8472 11.0894C3.95187 11.6091 2.89985 11.9029 1.84783 11.9255C1.34421 11.9368 0.930115 11.982 0.930115 12.0159C0.930115 12.1289 2.2955 12.7616 3.09011 13.0102C5.47393 13.7446 8.30542 13.4282 10.4318 12.1741C11.9427 11.2815 13.4536 9.50756 14.1587 7.79016C14.5392 6.87497 14.9197 5.20276 14.9197 4.40055C14.9197 3.88081 14.9533 3.81302 15.58 3.19159C15.9493 2.83003 16.2963 2.43458 16.3634 2.32159C16.4753 2.10692 16.4642 2.10692 15.8934 2.299C14.9421 2.63796 14.8078 2.59276 15.2778 2.08432C15.6248 1.72276 16.0389 1.06744 16.0389 0.875359C16.0389 0.841463 15.871 0.897957 15.6807 0.999645C15.4793 1.11263 15.0316 1.28211 14.6959 1.3838L14.0915 1.57588L13.5431 1.20302C13.241 0.999645 12.8157 0.773671 12.5918 0.705879C12.0211 0.547697 11.1481 0.570295 10.6333 0.751074C9.23433 1.25952 8.35019 2.57016 8.45092 4.0051Z" fill="white"/>
</svg>
