<svg width="18" height="13" viewBox="0 0 18 13" fill="none" xmlns="http://www.w3.org/2000/svg">
<path fill-rule="evenodd" clip-rule="evenodd" d="M15.5979 0.49952C16.3322 0.70103 16.9105 1.29478 17.1068 2.04878C17.4635 3.41533 17.4635 6.26663 17.4635 6.26663C17.4635 6.26663 17.4635 9.11784 17.1068 10.4845C16.9105 11.2385 16.3322 11.8322 15.5979 12.0338C14.267 12.4 8.93012 12.4 8.93012 12.4C8.93012 12.4 3.5932 12.4 2.26229 12.0338C1.52794 11.8322 0.949614 11.2385 0.753347 10.4845C0.39679 9.11784 0.39679 6.26663 0.39679 6.26663C0.39679 6.26663 0.39679 3.41533 0.753347 2.04878C0.949614 1.29478 1.52794 0.70103 2.26229 0.49952C3.5932 0.133301 8.93012 0.133301 8.93012 0.133301C8.93012 0.133301 14.267 0.133301 15.5979 0.49952ZM7.33014 3.86658V9.19991L11.5968 6.53335L7.33014 3.86658Z" fill="white"/>
</svg>
